<?xml version="1.0" standalone="no"?>
<!DOCTYPE svg PUBLIC "-//W3C//DTD SVG 20010904//EN"
 "http://www.w3.org/TR/2001/REC-SVG-20010904/DTD/svg10.dtd">
<svg version="1.0" xmlns="http://www.w3.org/2000/svg"
 width="592.000000pt" height="592.000000pt" viewBox="0 0 592.000000 592.000000"
 preserveAspectRatio="xMidYMid meet">
<metadata>
Created by potrace 1.11, written by Peter Selinger 2001-2013
</metadata>
<g transform="translate(0.000000,592.000000) scale(0.100000,-0.100000)"
fill="#000000" stroke="none">
<path d="M270 4627 c-107 -45 -197 -122 -240 -206 -20 -40 -20 -47 -18 -1238
l3 -1198 37 -60 c66 -108 172 -197 256 -215 20 -5 82 -11 137 -14 55 -4 128
-9 161 -12 l61 -6 5 51 c12 121 141 194 253 142 22 -10 48 -27 57 -37 28 -32
50 -94 47 -135 -2 -21 -1 -40 1 -42 3 -3 61 -8 130 -11 69 -4 132 -9 140 -11
8 -2 75 -6 148 -10 74 -4 141 -8 150 -10 9 -1 69 -6 132 -9 63 -4 133 -9 155
-11 22 -2 87 -7 145 -10 58 -4 119 -9 135 -11 17 -2 98 -6 180 -10 123 -5 162
-4 214 10 99 25 193 80 259 150 70 76 107 142 131 237 l18 72 7 -49 c18 -138
137 -293 279 -366 98 -50 165 -61 322 -54 77 3 158 8 180 10 22 2 85 7 140 10
55 4 125 9 155 11 30 2 127 9 215 15 88 6 180 12 205 15 25 2 94 7 155 11 60
4 117 8 125 9 8 2 45 4 81 4 l67 1 4 64 c3 51 10 71 32 101 53 69 143 92 221
56 66 -30 105 -91 105 -162 l0 -29 83 6 c257 18 288 22 342 49 66 32 168 139
208 217 l27 55 0 1185 0 1184 -26 52 c-32 65 -114 139 -202 183 l-67 34 -135
-3 c-74 -1 -146 -4 -160 -6 -14 -2 -32 -4 -41 -5 -9 0 -22 -15 -30 -32 -32
-79 -93 -121 -176 -122 -43 -1 -60 4 -95 29 -23 16 -51 46 -62 67 -13 24 -25
36 -35 33 -9 -3 -72 -8 -141 -11 -69 -4 -132 -9 -140 -10 -8 -1 -73 -6 -145
-10 -71 -4 -137 -8 -145 -10 -8 -1 -71 -6 -140 -10 -69 -3 -132 -8 -140 -10
-8 -2 -69 -6 -135 -10 -66 -3 -131 -8 -145 -10 -14 -2 -74 -6 -135 -10 -132
-8 -183 -17 -257 -45 -119 -44 -249 -153 -316 -264 -38 -63 -81 -178 -83 -221
0 -21 -6 -8 -18 40 -43 168 -133 294 -275 386 -99 65 -191 92 -346 103 -86 6
-471 33 -605 42 -49 3 -101 7 -115 9 -14 1 -81 6 -150 10 -69 4 -132 8 -140
10 -8 2 -71 6 -140 10 -69 3 -133 9 -142 11 -12 3 -22 -6 -34 -31 -70 -148
-289 -124 -338 38 -3 9 -16 17 -28 18 -13 0 -32 2 -43 4 -11 2 -76 7 -145 10
-116 5 -129 4 -180 -18z m1315 -1088 c57 -15 123 -56 171 -106 172 -179 118
-476 -105 -587 -155 -77 -335 -46 -454 78 -139 146 -136 372 8 518 97 98 236
133 380 97z m2948 6 c96 -13 226 -114 268 -209 62 -141 30 -314 -78 -421 -231
-227 -626 -84 -650 236 -15 191 125 369 316 398 45 7 64 7 144 -4z"/>
</g>
</svg>
